HIERARCHY
ROOT Root
{
  OFFSET 0.0 0.0 0.0
  CHANNELS 6 Xposition Yposition Zposition Zrotation Yrotation Xrotation
  JOINT Hips
  {
    OFFSET 0.0 100.0 0.0
    CHANNELS 6 Xposition Yposition Zposition Zrotation Yrotation Xrotation
    JOINT Spine1
    {
      OFFSET -0.013727 5.003763 -0.053727
      CHANNELS 3 Zrotation Yrotation Xrotation
      JOINT Spine2
      {
        OFFSET -0.0 7.125301 -0.029825
        CHANNELS 3 Zrotation Yrotation Xrotation
        JOINT Chest
        {
          OFFSET -1e-06 7.550063 -0.815971
          CHANNELS 3 Zrotation Yrotation Xrotation
          JOINT Neck1
          {
            OFFSET -0.181677 26.311295 -0.553348
            CHANNELS 3 Zrotation Yrotation Xrotation
            JOINT Neck2
            {
              OFFSET -3e-06 7.709397 2.302585
              CHANNELS 3 Zrotation Yrotation Xrotation
              JOINT Head
              {
                OFFSET -5e-06 6.128916 1.953709
                CHANNELS 3 Zrotation Yrotation Xrotation
                JOINT HeadEnd
                {
                  OFFSET 0.003598 16.065403 -1.835379
                  CHANNELS 3 Zrotation Yrotation Xrotation
                }
                JOINT Jaw
                {
                  OFFSET 0.002637 0.475592 3.094941
                  CHANNELS 3 Zrotation Yrotation Xrotation
                }
                JOINT LeftEye
                {
                  OFFSET 3.206381 5.380205 7.586883
                  CHANNELS 3 Zrotation Yrotation Xrotation
                }
                JOINT RightEye
                {
                  OFFSET -3.22244 5.361869 7.558234
                  CHANNELS 3 Zrotation Yrotation Xrotation
                }
              }
            }
          }
          JOINT LeftShoulder
          {
            OFFSET 1.621652 23.237164 5.113413
            CHANNELS 3 Zrotation Yrotation Xrotation
            JOINT LeftArm
            {
              OFFSET 14.919846 2e-06 -5.502326
              CHANNELS 3 Zrotation Yrotation Xrotation
              JOINT LeftForeArm
              {
                OFFSET 28.739307 0.0 -0.002588
                CHANNELS 3 Zrotation Yrotation Xrotation
                JOINT LeftHand
                {
                  OFFSET 27.093981 -1e-06 0.002609
                  CHANNELS 3 Zrotation Yrotation Xrotation
                  JOINT LeftHandThumb1
                  {
                    OFFSET 2.276482 -1.392045 3.191413
                    CHANNELS 3 Zrotation Yrotation Xrotation
                    JOINT LeftHandThumb2
                    {
                      OFFSET 4.012836 -1.828127 1.641654
                      CHANNELS 3 Zrotation Yrotation Xrotation
                      JOINT LeftHandThumb3
                      {
                        OFFSET 2.798515 0.0 -3e-06
                        CHANNELS 3 Zrotation Yrotation Xrotation
                        JOINT LeftHandThumbEnd
                        {
                          OFFSET 3.180793 -4e-06 4e-06
                          CHANNELS 3 Zrotation Yrotation Xrotation
                        }
                      }
                    }
                  }
                  JOINT LeftHandIndex1
                  {
                    OFFSET 3.247555 -0.531998 2.296169
                    CHANNELS 3 Zrotation Yrotation Xrotation
                    JOINT LeftHandIndex2
                    {
                      OFFSET 6.364578 0.01206 0.1786
                      CHANNELS 3 Zrotation Yrotation Xrotation
                      JOINT LeftHandIndex3
                      {
                        OFFSET 3.662364 0.0 0.0
                        CHANNELS 3 Zrotation Yrotation Xrotation
                        JOINT LeftHandIndex4
                        {
                          OFFSET 2.329242 4e-06 4e-06
                          CHANNELS 3 Zrotation Yrotation Xrotation
                          JOINT LeftHandIndexEnd
                          {
                            OFFSET 2.759615 -0.180537 -0.113024
                            CHANNELS 3 Zrotation Yrotation Xrotation
                          }
                        }
                      }
                    }
                  }
                  JOINT LeftHandMiddle1
                  {
                    OFFSET 3.163495 0.240981 1.000332
                    CHANNELS 3 Zrotation Yrotation Xrotation
                    JOINT LeftHandMiddle2
                    {
                      OFFSET 6.19078 -0.259278 -1.002548
                      CHANNELS 3 Zrotation Yrotation Xrotation
                      JOINT LeftHandMiddle3
                      {
                        OFFSET 4.35652 -4e-06 -1e-06
                        CHANNELS 3 Zrotation Yrotation Xrotation
                        JOINT LeftHandMiddle4
                        {
                          OFFSET 2.996877 -8e-06 0.0
                          CHANNELS 3 Zrotation Yrotation Xrotation
                          JOINT LeftHandMiddleEnd
                          {
                            OFFSET 2.304287 -0.294569 -0.031741
                            CHANNELS 3 Zrotation Yrotation Xrotation
                          }
                        }
                      }
                    }
                  }
                  JOINT LeftHandRing1
                  {
                    OFFSET 2.882643 -0.053652 -0.322543
                    CHANNELS 3 Zrotation Yrotation Xrotation
                    JOINT LeftHandRing2
                    {
                      OFFSET 5.854541 -0.486202 -1.373841
                      CHANNELS 3 Zrotation Yrotation Xrotation
                      JOINT LeftHandRing3
                      {
                        OFFSET 4.350578 0.0 3e-06
                        CHANNELS 3 Zrotation Yrotation Xrotation
                        JOINT LeftHandRing4
                        {
                          OFFSET 2.651321 7e-06 2e-06
                          CHANNELS 3 Zrotation Yrotation Xrotation
                          JOINT LeftHandRingEnd
                          {
                            OFFSET 1.936105 0.077687 -7.1e-05
                            CHANNELS 3 Zrotation Yrotation Xrotation
                          }
                        }
                      }
                    }
                  }
                  JOINT LeftHandPinky1
                  {
                    OFFSET 2.8655 -0.310005 -1.600378
                    CHANNELS 3 Zrotation Yrotation Xrotation
                    JOINT LeftHandPinky2
                    {
                      OFFSET 5.087849 -1.331141 -1.77123
                      CHANNELS 3 Zrotation Yrotation Xrotation
                      JOINT LeftHandPinky3
                      {
                        OFFSET 3.070974 4e-06 0.0
                        CHANNELS 3 Zrotation Yrotation Xrotation
                        JOINT LeftHandPinky4
                        {
                          OFFSET 1.549672 0.0 1e-06
                          CHANNELS 3 Zrotation Yrotation Xrotation
                          JOINT LeftHandPinkyEnd
                          {
                            OFFSET 1.944893 -0.157802 0.057219
                            CHANNELS 3 Zrotation Yrotation Xrotation
                          }
                        }
                      }
                    }
                  }
                }
              }
            }
          }
          JOINT RightShoulder
          {
            OFFSET -1.380118 23.180309 5.214158
            CHANNELS 3 Zrotation Yrotation Xrotation
            JOINT RightArm
            {
              OFFSET -15.037196 1.2e-05 -5.545604
              CHANNELS 3 Zrotation Yrotation Xrotation
              JOINT RightForeArm
              {
                OFFSET -28.736639 2e-06 -0.002597
                CHANNELS 3 Zrotation Yrotation Xrotation
                JOINT RightHand
                {
                  OFFSET -27.133619 -0.0 0.002613
                  CHANNELS 3 Zrotation Yrotation Xrotation
                  JOINT RightHandThumb1
                  {
                    OFFSET -2.274032 -1.383988 3.163127
                    CHANNELS 3 Zrotation Yrotation Xrotation
                    JOINT RightHandThumb2
                    {
                      OFFSET -4.011429 -1.827466 1.640914
                      CHANNELS 3 Zrotation Yrotation Xrotation
                      JOINT RightHandThumb3
                      {
                        OFFSET -2.794935 -4e-06 -3e-06
                        CHANNELS 3 Zrotation Yrotation Xrotation
                        JOINT RightHandThumbEnd
                        {
                          OFFSET -3.183852 4e-06 1e-06
                          CHANNELS 3 Zrotation Yrotation Xrotation
                        }
                      }
                    }
                  }
                  JOINT RightHandIndex1
                  {
                    OFFSET -3.253266 -0.520057 2.282866
                    CHANNELS 3 Zrotation Yrotation Xrotation
                    JOINT RightHandIndex2
                    {
                      OFFSET -6.341917 0.012471 0.178266
                      CHANNELS 3 Zrotation Yrotation Xrotation
                      JOINT RightHandIndex3
                      {
                        OFFSET -3.654871 -8e-06 -0.0
                        CHANNELS 3 Zrotation Yrotation Xrotation
                        JOINT RightHandIndex4
                        {
                          OFFSET -2.327586 0.0 1e-06
                          CHANNELS 3 Zrotation Yrotation Xrotation
                          JOINT RightHandIndexEnd
                          {
                            OFFSET -2.76179 -0.180656 -0.113078
                            CHANNELS 3 Zrotation Yrotation Xrotation
                          }
                        }
                      }
                    }
                  }
                  JOINT RightHandMiddle1
                  {
                    OFFSET -3.168106 0.246593 1.00103
                    CHANNELS 3 Zrotation Yrotation Xrotation
                    JOINT RightHandMiddle2
                    {
                      OFFSET -6.180828 -0.258836 -1.000895
                      CHANNELS 3 Zrotation Yrotation Xrotation
                      JOINT RightHandMiddle3
                      {
                        OFFSET -4.348901 0.0 -0.0
                        CHANNELS 3 Zrotation Yrotation Xrotation
                        JOINT RightHandMiddle4
                        {
                          OFFSET -3.00024 -4e-06 -2e-06
                          CHANNELS 3 Zrotation Yrotation Xrotation
                          JOINT RightHandMiddleEnd
                          {
                            OFFSET -2.30252 -0.29437 -0.031706
                            CHANNELS 3 Zrotation Yrotation Xrotation
                          }
                        }
                      }
                    }
                  }
                  JOINT RightHandRing1
                  {
                    OFFSET -2.88569 -0.067952 -0.308858
                    CHANNELS 3 Zrotation Yrotation Xrotation
                    JOINT RightHandRing2
                    {
                      OFFSET -5.854198 -0.48613 -1.373731
                      CHANNELS 3 Zrotation Yrotation Xrotation
                      JOINT RightHandRing3
                      {
                        OFFSET -4.33881 -4e-06 -0.0
                        CHANNELS 3 Zrotation Yrotation Xrotation
                        JOINT RightHandRing4
                        {
                          OFFSET -2.654903 -4e-06 4e-06
                          CHANNELS 3 Zrotation Yrotation Xrotation
                          JOINT RightHandRingEnd
                          {
                            OFFSET -1.933568 0.077527 -5.2e-05
                            CHANNELS 3 Zrotation Yrotation Xrotation
                          }
                        }
                      }
                    }
                  }
                  JOINT RightHandPinky1
                  {
                    OFFSET -2.866425 -0.342796 -1.584145
                    CHANNELS 3 Zrotation Yrotation Xrotation
                    JOINT RightHandPinky2
                    {
                      OFFSET -5.091371 -1.332055 -1.772385
                      CHANNELS 3 Zrotation Yrotation Xrotation
                      JOINT RightHandPinky3
                      {
                        OFFSET -3.062664 -4e-06 1e-06
                        CHANNELS 3 Zrotation Yrotation Xrotation
                        JOINT RightHandPinky4
                        {
                          OFFSET -1.546529 4e-06 -2e-06
                          CHANNELS 3 Zrotation Yrotation Xrotation
                          JOINT RightHandPinkyEnd
                          {
                            OFFSET -1.945119 -0.157718 0.057211
                            CHANNELS 3 Zrotation Yrotation Xrotation
                          }
                        }
                      }
                    }
                  }
                }
              }
            }
          }
        }
      }
    }
    JOINT LeftLeg
    {
      OFFSET 10.043214 -8.434526 2.595655
      CHANNELS 3 Zrotation Yrotation Xrotation
      JOINT LeftShin
      {
        OFFSET -1e-06 -43.221752 -0.802913
        CHANNELS 3 Zrotation Yrotation Xrotation
        JOINT LeftFoot
        {
          OFFSET 1e-06 -42.155094 -3.481523
          CHANNELS 3 Zrotation Yrotation Xrotation
          JOINT LeftToeBase
          {
            OFFSET 0.0 -5.059472 13.231529
            CHANNELS 3 Zrotation Yrotation Xrotation
            JOINT LeftToeEnd
            {
              OFFSET -0.009607 -1.647619 6.513017
              CHANNELS 3 Zrotation Yrotation Xrotation
            }
          }
        }
      }
    }
    JOINT RightLeg
    {
      OFFSET -10.047278 -8.29526 2.620317
      CHANNELS 3 Zrotation Yrotation Xrotation
      JOINT RightShin
      {
        OFFSET 1e-06 -43.362206 -0.805556
        CHANNELS 3 Zrotation Yrotation Xrotation
        JOINT RightFoot
        {
          OFFSET 2e-06 -42.117393 -3.478398
          CHANNELS 3 Zrotation Yrotation Xrotation
          JOINT RightToeBase
          {
            OFFSET -0.0 -5.079609 13.284196
            CHANNELS 3 Zrotation Yrotation Xrotation
            JOINT RightToeEnd
            {
              OFFSET 0.009532 -1.634378 6.460591
              CHANNELS 3 Zrotation Yrotation Xrotation
            }
          }
        }
      }
    }
  }
}
MOTION
Frames: 4
Frame Time: 0.03333333333333333
0.0 0.0 0.0 0.0 -0.0 0.0 -105.514351 85.138077 -424.728058 -176.030945 43.612625 -154.716019 7.536001 -3.795116 10.73955 3.016548 -3.925429 -0.912389 11.625108 -9.523299 16.720865 7.089674 -3.020833 -7.970393 -0.969803 -13.041145 -4.663393 0.980715 -13.817003 -35.299763 7.7e-05 -2.3e-05 6e-06 0.023337 -0.071372 0.00418 0.501195 -3.962931 -11.728357 -0.455301 3.809686 -11.411935 18.602026 -7.882164 14.324044 -50.156441 7.672145 8.615322 179.702942 -41.801704 -179.702148 -6.860563 -10.855565 -30.434563 -5.882109 9.86129 0.702591 -10.936877 -0.360574 7.156209 -1e-06 8.774827 -0.0 -15.503165 15.215157 1.387501 -1.844033 2.498503 -2.507278 -10.163604 4.678948 4.621113 -20.976027 -3e-06 3e-06 -21.226292 2.451698 -3.594002 0.0 -6e-06 0.0 -1.362683 2.240799 -0.746323 -21.334917 0.584909 3.008325 -13.821216 -3e-06 2e-06 -23.887175 -0.24908 -0.839484 -53.19252 1.804253 -2.195042 -0.294021 1.679688 0.833257 -14.218215 0.093216 1.300581 -34.212055 -0.287564 0.967169 -20.03322 0.964537 1.212843 -0.0 0.0 0.0 -3.44039 0.788234 0.501656 -15.928189 -3.167311 2.999709 -6.338828 -2e-06 2e-06 -18.123447 3.648184 -4.905671 -3e-06 -0.0 -3e-06 -0.923383 0.748927 11.436671 26.639299 -17.040804 -42.891285 -163.078781 67.08313 -164.824585 -2.294746 -8.754123 -74.822533 2.243541 -5.255038 -3.180157 14.282895 -0.826594 6.952507 -3e-06 -12.690605 1e-06 17.590029 -16.510939 4.121445 1.665666 -1.955922 -2.878299 4.7278 -4.170587 4.993927 11.020528 4e-06 1e-06 12.109054 -3.735716 -2.866782 1e-06 1e-06 1e-06 1.291985 -1.928549 -1.498089 14.800132 0.56747 3.865611 14.24257 -1.341736 -6.660656 19.631973 0.143926 -0.64824 54.879139 -2.655737 -6.737211 0.353029 -1.511151 -0.031939 20.222795 3.684309 2.316634 18.787273 3e-06 3e-06 10.751631 -0.47987 1.397908 -2e-06 0.0 -1e-06 3.273808 0.305947 -0.58011 21.486818 11.830378 2.266136 8.16293 1e-06 1e-06 18.39909 -3.798988 -4.940573 3e-06 -0.0 -1e-06 21.324373 -26.430187 -47.252037 -0.784752 -0.770399 108.999626 -1.724001 2.436551 -31.904367 1.855663 -2.018354 -8.749424 -0.0 -0.0 2e-06 22.890066 -37.952633 -60.605152 0.319422 -0.46237 73.477623 0.107964 -14.789234 -24.542889 -1.495061 0.797134 1.220419 0.0 0.0 -3e-06
0.0 0.0 0.0 0.0 -0.0 0.0 -97.283104 85.664955 -424.304016 -177.962006 45.607628 -157.527908 6.492554 -3.709527 11.74177 2.917358 -3.495528 -0.095248 10.776605 -8.509416 17.663101 6.786688 -2.485287 -9.761698 -1.622912 -12.606497 -4.58532 1.868518 -14.227274 -34.600636 7.7e-05 -2.2e-05 6e-06 0.013433 -0.002765 -0.030594 0.515064 -3.874928 -11.677739 -0.49175 3.858809 -11.417418 16.845739 -7.579777 15.920657 -53.468365 10.71001 7.457021 -179.956451 -40.487267 -179.278015 -9.65099 -11.868451 -31.876623 -5.882107 9.861292 0.702589 -10.936872 -0.360574 7.156209 -1e-06 8.774828 -0.0 -15.571526 15.144212 1.608275 -1.844033 2.498505 -2.507279 -10.163598 4.678948 4.621109 -20.976028 -3e-06 -4e-06 -21.226295 2.451696 -3.594007 0.0 -6e-06 -0.0 -1.362681 2.2408 -0.746323 -21.334913 0.584909 3.008322 -13.821215 -2e-06 -1e-06 -23.887175 -0.249081 -0.839485 -53.304634 1.605628 -2.08042 -0.294026 1.679688 0.833256 -14.21821 0.093216 1.300581 -34.212048 -0.287563 0.967165 -20.033215 0.964537 1.212842 0.0 0.0 0.0 -3.440387 0.788234 0.501655 -15.928187 -3.167312 2.999706 -6.338828 -1e-06 0.0 -18.123446 3.648183 -4.905674 -3e-06 0.0 -3e-06 -2.281219 1.330265 11.46751 27.814682 -13.990788 -44.739506 -168.433655 65.880295 -168.836563 -2.278795 -11.614682 -76.272026 2.243541 -5.255038 -3.180158 14.282889 -0.826594 6.952506 -2e-06 -12.69061 1e-06 18.211346 -16.275068 3.791806 1.665665 -1.955923 -2.8783 4.727798 -4.17059 4.993926 11.020526 2e-06 -1e-06 12.109052 -3.735718 -2.866786 2e-06 1e-06 -0.0 1.291986 -1.92855 -1.49809 14.800125 0.567469 3.865609 14.242569 -1.341736 -6.66066 19.631966 0.143927 -0.648244 54.950195 -3.052443 -6.921196 0.353029 -1.511151 -0.03194 20.222788 3.68431 2.316631 18.78727 3e-06 -0.0 10.751629 -0.47987 1.397907 -2e-06 -0.0 -0.0 3.273806 0.305946 -0.580111 21.486809 11.830381 2.266135 8.162926 1e-06 0.0 18.399076 -3.798988 -4.940575 3e-06 -0.0 -1e-06 19.216335 -25.89316 -60.803822 -0.874373 -0.696755 112.430328 -1.221882 5.842711 -33.10141 1.915166 -1.93254 -7.344223 -0.0 -1e-06 1e-06 19.603052 -35.34584 -50.673676 0.27935 -0.614095 71.364037 3.221768 -16.860943 -25.95644 -1.476927 0.915006 0.19813 -0.0 -0.0 -0.0
0.0 0.0 0.0 0.0 -0.0 0.0 -88.277031 85.862228 -424.284424 178.757172 48.450665 -161.682236 5.077913 -3.749772 12.477503 2.79422 -3.158927 0.434681 9.136832 -7.50843 18.365107 5.893749 -2.267484 -10.384694 -2.283347 -13.130229 -4.42174 2.857263 -14.387659 -33.643063 7.7e-05 -2.3e-05 6e-06 0.007874 -0.016633 -0.004072 0.521932 -3.892837 -11.606255 -0.510549 3.849296 -11.422886 14.731555 -6.942895 17.381855 -54.375553 13.771437 7.055116 -177.839111 -40.153351 179.470825 -12.269238 -12.255974 -31.749743 -5.88211 9.861288 0.70259 -10.936873 -0.360573 7.156205 -3e-06 8.774827 -1e-06 -15.760801 15.155464 1.504005 -1.844033 2.498505 -2.507277 -10.163601 4.678946 4.621108 -20.976027 -2e-06 0.0 -21.226292 2.451697 -3.594003 0.0 -6e-06 1e-06 -1.362682 2.240798 -0.746324 -21.334919 0.584912 3.008322 -13.821218 -2e-06 -1e-06 -23.887177 -0.249079 -0.839487 -53.11227 1.450845 -2.384121 -0.294027 1.679687 0.833256 -14.218212 0.093216 1.300579 -34.212055 -0.287563 0.967166 -20.033216 0.964536 1.212841 -0.0 0.0 1e-06 -3.440388 0.788234 0.501655 -15.928189 -3.16731 2.999707 -6.338828 -0.0 0.0 -18.123453 3.648184 -4.905672 -3e-06 -0.0 -1e-06 -3.852133 1.622748 11.242682 26.321833 -13.014751 -44.271034 -171.505234 64.347862 -170.984894 -1.767262 -13.687535 -80.041214 2.243542 -5.25504 -3.18016 14.282894 -0.826593 6.952507 -2e-06 -12.690609 -0.0 18.638147 -16.009636 3.645963 1.665667 -1.955923 -2.878301 4.727798 -4.170589 4.993926 11.020528 3e-06 -2e-06 12.109055 -3.735717 -2.866787 -0.0 1e-06 -0.0 1.291986 -1.92855 -1.49809 14.800132 0.56747 3.865609 14.242573 -1.341736 -6.660663 19.631973 0.143929 -0.648246 55.196945 -3.060476 -6.929507 0.353029 -1.511152 -0.03194 20.222795 3.684313 2.316631 18.787275 6e-06 -2e-06 10.751627 -0.479868 1.397907 -1e-06 0.0 0.0 3.273808 0.305948 -0.580111 21.486816 11.830382 2.266133 8.16293 2e-06 0.0 18.399082 -3.798986 -4.940577 3e-06 0.0 -1e-06 14.435069 -24.73097 -70.805817 -0.945212 -0.652109 105.996269 -0.983328 6.698329 -28.367453 1.83742 -1.843123 -7.260933 -0.0 0.0 3e-06 15.335706 -32.799877 -39.116081 0.149648 -0.919908 67.180588 5.74687 -17.443201 -27.453245 -1.483861 0.908629 -1.466532 -0.0 -0.0 -0.0
0.0 0.0 0.0 0.0 -0.0 0.0 -78.857872 86.372322 -424.500427 174.204315 51.21143 -167.018753 3.474394 -3.818502 12.754636 2.570679 -2.771258 0.622365 7.150066 -6.611359 19.155903 4.862984 -2.322682 -10.365523 -2.58767 -14.092219 -4.409834 3.683485 -14.942986 -31.994431 7.7e-05 -2.3e-05 6e-06 0.000813 0.01808 -0.002941 0.500664 -3.864368 -11.493175 -0.505329 3.895537 -11.39511 11.964548 -6.363985 18.85677 -53.407166 15.461864 7.243696 -175.443008 -41.407612 177.947601 -14.358554 -12.46097 -30.765976 -5.882104 9.861286 0.702592 -10.936872 -0.360574 7.156208 0.0 8.774825 1e-06 -15.953961 15.036996 1.273251 -1.844032 2.498505 -2.507278 -10.1636 4.678946 4.621109 -20.976023 -4e-06 2e-06 -21.226286 2.451696 -3.594001 0.0 -6e-06 -2e-06 -1.362681 2.240797 -0.746323 -21.334913 0.58491 3.008322 -13.821216 -4e-06 2e-06 -23.887173 -0.24908 -0.839482 -52.995499 1.091444 -2.874707 -0.294026 1.679686 0.833257 -14.218208 0.093216 1.300581 -34.212051 -0.287563 0.967171 -20.033215 0.964537 1.212846 -0.0 0.0 1e-06 -3.440387 0.788234 0.501656 -15.928185 -3.16731 2.999707 -6.338825 -1e-06 0.0 -18.123444 3.648183 -4.905668 -3e-06 0.0 -1e-06 -4.423155 2.062361 10.94151 22.9247 -13.724525 -41.500061 -173.247482 62.741024 -171.371628 -0.231118 -15.68213 -83.595215 2.243541 -5.255036 -3.180159 14.282892 -0.826595 6.952506 -2e-06 -12.690601 2e-06 18.970274 -15.911557 3.664216 1.665666 -1.955921 -2.8783 4.727799 -4.170587 4.993927 11.020526 4e-06 -1e-06 12.109054 -3.735714 -2.866785 -1e-06 -0.0 -0.0 1.291985 -1.92855 -1.49809 14.800129 0.567468 3.86561 14.242571 -1.341734 -6.66066 19.631968 0.143926 -0.648246 55.81509 -2.829559 -6.807691 0.353029 -1.511149 -0.03194 20.222792 3.684309 2.316633 18.787273 3e-06 0.0 10.751626 -0.479869 1.397908 1e-06 0.0 1e-06 3.273807 0.305946 -0.580111 21.486813 11.830371 2.266134 8.162928 1e-06 1e-06 18.39908 -3.798986 -4.940572 3e-06 0.0 -1e-06 7.648459 -23.646301 -74.823853 -0.503384 -0.510218 90.29615 -1.746288 5.142044 -21.910946 1.79134 -1.872513 -7.449033 -0.0 1e-06 2e-06 10.56292 -31.083235 -25.454273 0.049728 -1.126245 59.248817 7.989671 -17.519136 -26.369995 -1.509173 0.861654 -4.759923 -0.0 -0.0 -1e-06
